<?xml version="1.0" encoding="UTF-8"?><svg id="b" xmlns="http://www.w3.org/2000/svg" width="411.53" height="101.21" viewBox="0 0 411.53 101.21"><g id="c"><path d="M55,24.96l5.33-15.2C34.26,1.27,7.9,9.33,1.44,27.76c-6.4,18.25,9.12,39.82,34.72,48.49l-5.33,15.2c26.06,8.49,52.43.44,58.89-18,6.4-18.25-9.12-39.82-34.72-48.49Z" fill="#ae69f4" stroke-width="0"/><path d="M31.6,48.77l-13.5-8.19c-.38-.23-.16-.82.28-.74l15.53,2.89c5.28.98,10.62-1.41,13.4-6l8.19-13.5c.23-.38.82-.16.74.28l-2.89,15.53c-.98,5.28,1.41,10.62,6,13.4l24.91,14.07c.38.23.16.82-.28.74l-26.93-8.77c-5.28-.98-10.62,1.41-13.4,6l-8.19,13.5c-.23.38-.82.16-.74-.28l2.89-15.53c.98-5.28-1.41-10.62-6-13.4Z" fill="#fff" stroke-width="0"/><path d="M55.65,43.95c.39,1.44,1.05,2.78,1.93,3.98.2-.15.39-.32.6-.46l9.26-6-10.79,2.34c-.34.07-.67.09-1.01.14Z" fill="#fff" stroke-width="0"/><path d="M39.24,40.33c1.3-.4,2.51-1.02,3.59-1.8-.16-.21-.33-.4-.48-.63l-6-9.26,2.33,10.79c.07.34.09.67.14,1.01.14-.04.28-.06.41-.1Z" fill="#fff" stroke-width="0"/><path d="M35.3,57.26c-.39-1.44-1.05-2.78-1.93-3.98-.2.15-.39.32-.6.46l-9.26,6,10.79-2.34c.34-.07.67-.09,1.01-.14Z" fill="#fff" stroke-width="0"/><path d="M51.72,60.88c-1.3.4-2.51,1.02-3.59,1.8.16.21.33.4.48.63l6,9.26-2.33-10.79c-.07-.33-.09-.67-.14-1.01-.14.04-.28.06-.42.1Z" fill="#fff" stroke-width="0"/><path d="M214.08,101.11c-1.41,0-2.63-.3-3.65-.9-1.03-.6-1.83-1.42-2.39-2.48-.56-1.06-.85-2.27-.85-3.63,0-1.02.17-1.96.51-2.82.34-.86.81-1.6,1.42-2.23.61-.63,1.34-1.12,2.18-1.45.84-.34,1.77-.51,2.78-.51,1.59,0,2.9.35,3.92,1.04,1.02.69,1.81,1.67,2.35,2.95l-2.65,1.02c-.44-.76-.95-1.31-1.54-1.66-.59-.35-1.28-.53-2.08-.53s-1.43.18-2.02.53c-.59.35-1.06.84-1.39,1.46-.34.62-.51,1.36-.51,2.21s.17,1.57.51,2.2c.34.63.8,1.12,1.39,1.46.59.35,1.26.52,2.02.52.8,0,1.49-.17,2.08-.52.59-.35,1.11-.9,1.54-1.65l2.65,1.02c-.54,1.27-1.33,2.26-2.35,2.95-1.02.69-2.33,1.04-3.92,1.04Z" fill="#fff" stroke-width="0"/><path d="M236.04,100.87h-8.24v-13.56h2.91v11.85l-.74-1.1h6.07v2.81Z" fill="#fff" stroke-width="0"/><path d="M242.85,94.1c0-1.02.17-1.96.51-2.82.34-.86.82-1.6,1.44-2.23.62-.63,1.36-1.12,2.21-1.46.85-.35,1.79-.52,2.83-.52s1.94.17,2.8.52c.86.35,1.6.83,2.22,1.46.62.63,1.1,1.37,1.44,2.23.34.86.51,1.8.51,2.82s-.17,1.96-.51,2.82c-.34.86-.82,1.6-1.44,2.23-.62.63-1.36,1.12-2.22,1.45-.86.34-1.79.51-2.8.51s-1.98-.17-2.83-.51c-.85-.34-1.59-.82-2.21-1.45-.62-.63-1.11-1.37-1.44-2.23-.34-.86-.51-1.8-.51-2.82ZM245.82,94.1c0,.84.17,1.57.52,2.19.35.62.82,1.11,1.42,1.45.6.35,1.3.52,2.08.52s1.46-.17,2.06-.52c.6-.35,1.08-.83,1.42-1.45.35-.62.52-1.36.52-2.21s-.17-1.57-.52-2.19c-.35-.62-.82-1.11-1.42-1.44-.6-.34-1.29-.51-2.06-.51s-1.48.17-2.08.52c-.6.35-1.08.83-1.42,1.44-.35.62-.52,1.35-.52,2.2Z" fill="#fff" stroke-width="0"/><path d="M269.84,101.11c-1.19,0-2.2-.22-3.02-.66-.82-.44-1.44-1.09-1.86-1.96-.42-.87-.64-1.95-.64-3.26v-7.93h2.91v7.99c0,.94.22,1.68.67,2.2.44.52,1.09.79,1.94.79s1.49-.26,1.93-.79c.44-.52.66-1.26.66-2.2v-7.99h2.93v7.93c0,1.3-.21,2.39-.64,3.26-.42.87-1.05,1.52-1.86,1.96s-1.82.66-3.02.66Z" fill="#fff" stroke-width="0"/><path d="M283.66,100.87v-13.56h4.74c1.41,0,2.62.27,3.63.81s1.8,1.31,2.35,2.33c.55,1.02.83,2.23.83,3.65s-.28,2.66-.83,3.66c-.55,1.01-1.34,1.78-2.36,2.31-1.02.53-2.24.8-3.64.8h-4.72ZM286.57,99.16l-1.16-1.1h2.77c.81,0,1.52-.14,2.12-.41.6-.27,1.08-.7,1.41-1.28.34-.58.51-1.34.51-2.27s-.17-1.67-.5-2.25c-.33-.58-.8-1.02-1.4-1.3-.6-.29-1.31-.43-2.12-.43h-2.93l1.29-.86v9.9Z" fill="#fff" stroke-width="0"/><path d="M318.63,101.21c-.78,0-1.52-.12-2.2-.35-.68-.23-1.29-.58-1.83-1.06-.54-.47-.99-1.08-1.36-1.82l2.27-1.41c.39.64.86,1.12,1.41,1.45.56.33,1.18.5,1.87.5.6,0,1.05-.13,1.35-.38.31-.25.46-.58.46-1,0-.27-.07-.49-.21-.69-.14-.19-.39-.37-.75-.55-.36-.17-.88-.34-1.55-.5-1.1-.27-1.97-.6-2.62-1-.64-.4-1.1-.87-1.36-1.42-.27-.55-.4-1.16-.4-1.84,0-.8.2-1.5.59-2.12s.95-1.11,1.68-1.46,1.6-.54,2.61-.54c1.14,0,2.11.23,2.9.68.79.45,1.42,1.04,1.9,1.77l-2.27,1.57c-.35-.45-.76-.78-1.24-.98-.48-.2-.97-.3-1.44-.3-.57,0-1.01.11-1.32.33s-.47.53-.47.93c0,.37.16.68.48.93.32.25.94.47,1.87.69,1.11.27,2.01.59,2.69.98.68.39,1.17.86,1.47,1.41.3.56.46,1.23.46,2.01s-.2,1.51-.61,2.13c-.41.62-.98,1.12-1.72,1.48-.74.36-1.63.55-2.65.55Z" fill="#fff" stroke-width="0"/><path d="M330.24,90.12v-2.81h11.05v2.81h-11.05ZM334.26,100.87v-12.19h2.93v12.19h-2.93Z" fill="#fff" stroke-width="0"/><path d="M354.11,101.11c-1.19,0-2.2-.22-3.02-.66-.82-.44-1.44-1.09-1.86-1.96-.42-.87-.64-1.95-.64-3.26v-7.93h2.91v7.99c0,.94.22,1.68.67,2.2.44.52,1.09.79,1.94.79s1.49-.26,1.93-.79c.44-.52.66-1.26.66-2.2v-7.99h2.93v7.93c0,1.3-.21,2.39-.64,3.26-.42.87-1.05,1.52-1.86,1.96s-1.82.66-3.02.66Z" fill="#fff" stroke-width="0"/><path d="M367.93,100.87v-13.56h4.74c1.41,0,2.62.27,3.63.81s1.8,1.31,2.35,2.33c.55,1.02.83,2.23.83,3.65s-.28,2.66-.83,3.66c-.55,1.01-1.34,1.78-2.36,2.31-1.02.53-2.24.8-3.64.8h-4.72ZM370.84,99.16l-1.16-1.1h2.77c.81,0,1.52-.14,2.12-.41.6-.27,1.08-.7,1.41-1.28.34-.58.51-1.34.51-2.27s-.17-1.67-.5-2.25c-.33-.58-.8-1.02-1.4-1.3-.6-.29-1.31-.43-2.12-.43h-2.93l1.29-.86v9.9Z" fill="#fff" stroke-width="0"/><path d="M389.98,100.87h-2.91v-13.56h2.91v13.56Z" fill="#fff" stroke-width="0"/><path d="M397.57,94.1c0-1.02.17-1.96.51-2.82.34-.86.82-1.6,1.44-2.23.62-.63,1.36-1.12,2.21-1.46.85-.35,1.79-.52,2.83-.52s1.94.17,2.8.52c.86.35,1.6.83,2.22,1.46.62.63,1.1,1.37,1.44,2.23.34.86.51,1.8.51,2.82s-.17,1.96-.51,2.82c-.34.86-.82,1.6-1.44,2.23-.62.63-1.36,1.12-2.22,1.45-.86.34-1.79.51-2.8.51s-1.98-.17-2.83-.51c-.85-.34-1.59-.82-2.21-1.45-.62-.63-1.11-1.37-1.44-2.23-.34-.86-.51-1.8-.51-2.82ZM400.53,94.1c0,.84.17,1.57.52,2.19.35.62.82,1.11,1.42,1.45.6.35,1.3.52,2.08.52s1.46-.17,2.06-.52c.6-.35,1.08-.83,1.42-1.45.35-.62.52-1.36.52-2.21s-.17-1.57-.52-2.19c-.35-.62-.82-1.11-1.42-1.44-.6-.34-1.29-.51-2.06-.51s-1.48.17-2.08.52c-.6.35-1.08.83-1.42,1.44-.35.62-.52,1.35-.52,2.2Z" fill="#fff" stroke-width="0"/><path d="M123.72,72.45v-15.4c5.38,2.63,16.4,5.88,23.91,5.88,3.88,0,6.38-.88,6.38-3,0-6.64-32.55-.38-32.55-21.66,0-12.14,13.4-17.65,25.54-17.65,7.26,0,13.77,1.5,19.03,4.13v14.4c-6.89-2.75-13.27-3.76-17.4-3.76-5.01,0-8.01,1.13-8.01,3.13,0,5.76,30.3-.75,30.3,21.03,0,13.02-10.52,18.15-23.66,18.15-7.89,0-17.03-2-23.54-5.26Z" fill="#fff" stroke-width="0"/><path d="M237.45,49.04c0,16.53-11.52,28.67-27.29,28.67-5.26,0-10.14-1.5-14.02-4.13v27.17h-20.15V23.12h15.27l1.75,4.63c4.63-4.51,10.89-7.14,18.03-7.14,15.4,0,26.41,11.89,26.41,28.42ZM218.93,49.29c0-6.64-4.88-11.64-11.39-11.64s-11.39,5.01-11.39,11.64,4.88,11.77,11.39,11.77,11.39-5.13,11.39-11.77Z" fill="#fff" stroke-width="0"/><path d="M346.99,20.62v20.16c-2.63-.25-5.76-.5-8.01-.5-5.26,0-10.77,2.88-10.77,13.65v21.78h-20.03V23.12h15.27l2.63,12.02c3.51-9.01,10.02-14.52,20.03-14.52h.88Z" fill="#fff" stroke-width="0"/><path d="M388.87,75.7l-13.27-12.52-10.02,12.52h-13.52V0h19.65v44.78l14.4-21.66h21.66l-21.66,26.92,25.41,25.66h-22.66Z" fill="#fff" stroke-width="0"/><path d="M285.71,23.63v3c-4.26-3.51-9.76-5.51-15.9-5.51-15.78,0-27.29,12.14-27.29,28.67s11.02,28.42,26.41,28.42c6.51,0,12.27-2.13,16.78-6.01l4.08,4.01h13.32V23.63h-17.4ZM272.82,61.05c-6.51,0-11.39-5.13-11.39-11.77s5.01-11.64,11.39-11.64,11.39,5.01,11.39,11.64-4.88,11.77-11.39,11.77Z" fill="#fff" stroke-width="0"/></g></svg>